<svg width="182" height="182" viewBox="0 0 182 182" fill="none" xmlns="http://www.w3.org/2000/svg">
<path d="M13 23C13 18.5817 16.5817 15 21 15H161C165.418 15 169 18.5817 169 23V163C169 167.418 165.418 171 161 171H21C16.5817 171 13 167.418 13 163V23Z" fill="#101426"/>
<g filter="url(#filter0_d_2_685)">
<path d="M91.0002 159.383C127.662 159.383 157.383 129.662 157.383 93.0001C157.383 56.3378 127.662 26.6171 91.0002 26.6171C54.3379 26.6171 24.6172 56.3378 24.6172 93.0001C24.6172 129.662 54.3379 159.383 91.0002 159.383Z" fill="#151A30"/>
</g>
<g filter="url(#filter1_d_2_685)">
<path fill-rule="evenodd" clip-rule="evenodd" d="M93.4614 159.291C94.2073 159.278 94.9529 159.252 95.698 159.214C97.9039 159.058 100.101 158.793 102.28 158.418C104.461 158.039 106.622 157.552 108.755 156.957C110.889 156.368 112.992 155.673 115.056 154.874C117.117 154.071 119.137 153.166 121.107 152.162C123.08 151.158 125 150.055 126.862 148.858C128.725 147.664 130.526 146.377 132.26 145.003C133.995 143.627 135.66 142.165 137.249 140.622C138.837 139.08 140.347 137.459 141.773 135.766C143.198 134.072 144.538 132.308 145.787 130.481C147.038 128.654 148.196 126.765 149.259 124.823C150.321 122.881 151.286 120.887 152.149 118.848C153.01 116.811 153.768 114.732 154.421 112.618C155.073 110.502 155.618 108.355 156.055 106.184C156.498 104.015 156.832 101.825 157.056 99.6227C157.276 97.4219 157.385 95.2114 157.383 92.9997C157.382 91.4323 157.326 89.8653 157.215 88.3018C157.059 86.0959 156.793 83.8991 156.418 81.7197C156.408 81.6771 156.398 81.6346 156.387 81.5921L141.318 66.518C141.622 66.1414 141.813 65.6861 141.868 65.2052C141.923 64.7244 141.841 64.2378 141.63 63.8021C141.419 63.3665 141.089 62.9997 140.677 62.7446C140.266 62.4896 139.79 62.3567 139.307 62.3614C138.73 62.3662 138.172 62.566 137.724 62.9282L127.562 70.8482L116.517 59.8082C116.517 59.4686 116.449 59.1324 116.318 58.8192C116.186 58.5061 115.993 58.2223 115.751 57.9845C115.508 57.7468 115.221 57.5598 114.905 57.4345C114.59 57.3093 114.252 57.2482 113.912 57.255C105.604 57.4338 97.1176 57.4286 88.5848 57.3827C80.0418 57.3418 71.4529 57.255 62.915 57.255C62.2379 57.255 61.5884 57.524 61.1096 58.0028C60.6308 58.4817 60.3618 59.1311 60.3618 59.8082V126.191C60.3618 126.868 60.6308 127.518 61.1096 127.997C61.5884 128.475 62.2379 128.744 62.915 128.744L93.4614 159.291Z" fill="#222B45"/>
</g>
<g filter="url(#filter2_d_2_685)">
<path fill-rule="evenodd" clip-rule="evenodd" d="M62.915 57.255C62.2379 57.255 61.5884 57.524 61.1096 58.0028C60.6308 58.4817 60.3618 59.1311 60.3618 59.8082V126.191C60.3618 126.868 60.6308 127.518 61.1096 127.997C61.5884 128.475 62.2379 128.744 62.915 128.744H113.979C114.654 128.742 115.301 128.472 115.778 127.993C116.254 127.514 116.522 126.867 116.522 126.191V103.212H111.426V123.638H65.4682V62.3614C80.7873 62.4125 96.3005 62.6167 111.426 62.3614V67.8967H116.542L116.522 65.3435V59.8082C116.522 59.4686 116.454 59.1324 116.323 58.8192C116.191 58.5061 115.999 58.2223 115.756 57.9845C115.514 57.7468 115.226 57.5598 114.91 57.4345C114.595 57.3093 114.257 57.2482 113.918 57.255C97.2963 57.6125 80.001 57.255 62.915 57.255ZM139.306 62.3614C138.73 62.3662 138.172 62.566 137.724 62.9282L93.9822 96.9827L80.195 80.9282C79.9764 80.6731 79.7097 80.4635 79.4101 80.3114C79.1104 80.1593 78.7838 80.0677 78.4488 80.0419C78.1138 80.0161 77.777 80.0565 77.4576 80.1608C77.1382 80.2651 76.8425 80.4313 76.5873 80.6499C76.072 81.0914 75.7532 81.7195 75.701 82.3961C75.6488 83.0727 75.8675 83.7423 76.309 84.2576L93.2622 103.994L140.854 66.9623C141.283 66.6402 141.6 66.191 141.76 65.6785C141.919 65.1661 141.913 64.6163 141.742 64.1075C141.572 63.5986 141.245 63.1565 140.808 62.844C140.372 62.5314 139.848 62.3644 139.312 62.3665L139.306 62.3614Z" fill="#E4E9F2"/>
</g>
<defs>
<filter id="filter0_d_2_685" x="0.617188" y="0.617126" width="180.766" height="180.766" filterUnits="userSpaceOnUse" color-interpolation-filters="sRGB">
<feFlood flood-opacity="0" result="BackgroundImageFix"/>
<feColorMatrix in="SourceAlpha" type="matrix" values="0 0 0 0 0 0 0 0 0 0 0 0 0 0 0 0 0 0 127 0" result="hardAlpha"/>
<feOffset dy="-2"/>
<feGaussianBlur stdDeviation="12"/>
<feComposite in2="hardAlpha" operator="out"/>
<feColorMatrix type="matrix" values="0 0 0 0 0.890196 0 0 0 0 0.14902 0 0 0 0 0.509804 0 0 0 0.08 0"/>
<feBlend mode="normal" in2="BackgroundImageFix" result="effect1_dropShadow_2_685"/>
<feBlend mode="normal" in="SourceGraphic" in2="effect1_dropShadow_2_685" result="shape"/>
</filter>
<filter id="filter1_d_2_685" x="36.3618" y="31.2545" width="145.021" height="150.036" filterUnits="userSpaceOnUse" color-interpolation-filters="sRGB">
<feFlood flood-opacity="0" result="BackgroundImageFix"/>
<feColorMatrix in="SourceAlpha" type="matrix" values="0 0 0 0 0 0 0 0 0 0 0 0 0 0 0 0 0 0 127 0" result="hardAlpha"/>
<feOffset dy="-2"/>
<feGaussianBlur stdDeviation="12"/>
<feComposite in2="hardAlpha" operator="out"/>
<feColorMatrix type="matrix" values="0 0 0 0 0.890196 0 0 0 0 0.14902 0 0 0 0 0.509804 0 0 0 0.08 0"/>
<feBlend mode="normal" in2="BackgroundImageFix" result="effect1_dropShadow_2_685"/>
<feBlend mode="normal" in="SourceGraphic" in2="effect1_dropShadow_2_685" result="shape"/>
</filter>
<filter id="filter2_d_2_685" x="36.3618" y="31.2545" width="129.513" height="119.49" filterUnits="userSpaceOnUse" color-interpolation-filters="sRGB">
<feFlood flood-opacity="0" result="BackgroundImageFix"/>
<feColorMatrix in="SourceAlpha" type="matrix" values="0 0 0 0 0 0 0 0 0 0 0 0 0 0 0 0 0 0 127 0" result="hardAlpha"/>
<feOffset dy="-2"/>
<feGaussianBlur stdDeviation="12"/>
<feComposite in2="hardAlpha" operator="out"/>
<feColorMatrix type="matrix" values="0 0 0 0 0.890196 0 0 0 0 0.14902 0 0 0 0 0.509804 0 0 0 0.08 0"/>
<feBlend mode="normal" in2="BackgroundImageFix" result="effect1_dropShadow_2_685"/>
<feBlend mode="normal" in="SourceGraphic" in2="effect1_dropShadow_2_685" result="shape"/>
</filter>
</defs>
</svg>
