<svg width="182" height="182" viewBox="0 0 182 182" fill="none" xmlns="http://www.w3.org/2000/svg">
<rect x="13" y="15" width="156" height="156" rx="8" fill="#101426"/>
<g filter="url(#filter0_d_2_730)">
<path d="M91.0002 159.383C127.662 159.383 157.383 129.662 157.383 93.0001C157.383 56.3378 127.662 26.6171 91.0002 26.6171C54.3379 26.6171 24.6172 56.3378 24.6172 93.0001C24.6172 129.662 54.3379 159.383 91.0002 159.383Z" fill="#151A30"/>
</g>
<g filter="url(#filter1_d_2_730)">
<path d="M63.9739 74.4158L52.2739 94.7733L113.042 155.536C122.907 152.061 131.811 146.304 139.029 138.734C146.247 131.165 151.574 121.997 154.576 111.978L117.014 74.4158L110.915 77.9563L117.1 88.7158L109.598 81.2118L108.675 81.7484L107.258 82.5699L105.837 83.3886L105.751 83.4384C106.047 83.7233 106.318 84.0469 106.589 84.3622C106.705 84.5005 106.832 84.625 106.946 84.766C107.292 85.2086 107.618 85.6788 107.906 86.1822L111.261 92.0211C111.298 92.0858 111.331 92.1533 111.358 92.2231C111.601 92.6601 111.806 93.1082 111.991 93.5563L103.936 85.5018C102.329 83.8851 100.191 82.9046 97.9178 82.7414C96.0922 82.6114 94.2031 83.018 92.4827 84.0165L91.2573 84.7356H91.2518L89.6531 85.665L87.6256 83.6375C86.1881 83.0014 84.6203 82.7151 83.0507 82.8022C80.9333 82.9459 78.9273 83.804 77.3612 85.2363L70.0784 77.9563L63.9739 74.4158Z" fill="#222B45"/>
</g>
<g filter="url(#filter2_d_2_730)">
<path d="M63.9769 74.4126L70.0813 77.9531L58.3813 98.3075L52.2769 94.7673L63.9769 74.4126ZM117.017 74.4126L128.717 94.77L122.621 98.3075L110.921 77.9501L117.017 74.4126ZM71.3952 81.2086L73.7407 82.5639L75.2426 83.4404C74.3966 84.2457 73.6701 85.1681 73.0852 86.1791L69.7301 92.0179C69.1624 93.0393 68.7433 94.1364 68.4854 95.2761L66.9503 94.3912L64.6047 93.0274L71.3952 81.2086ZM109.601 81.2086L116.397 93.0301L115.462 93.5697L114.046 94.3912L112.63 95.2127L112.561 95.2569C112.296 94.1963 111.892 93.1752 111.36 92.2198C111.333 92.151 111.301 92.0843 111.264 92.0206L107.909 86.1818C107.323 85.169 106.596 84.2441 105.751 83.435L105.84 83.3854L107.261 82.5666L108.677 81.7452L109.601 81.2086ZM97.9207 82.7382C99.7462 82.8682 101.511 83.5347 102.993 84.6715C103.981 85.4294 104.844 86.3974 105.51 87.5563L108.866 93.3951C110.083 95.5166 110.401 97.876 109.966 100.078C109.718 99.8288 109.441 99.5992 109.126 99.4139L97.8073 92.8505C97.8792 92.0041 97.7243 91.1384 97.3094 90.3445C97.2879 90.2859 97.263 90.2286 97.2347 90.173C97.2237 90.1454 97.2126 90.1344 97.2015 90.1122C97.196 90.1122 97.1905 90.1122 97.1849 90.0846C97.1523 90.0351 97.1162 89.9879 97.0771 89.9434C96.7833 89.4696 96.4044 89.0542 95.9596 88.7181H95.9541C95.194 88.1735 94.2924 87.8605 93.3583 87.8173C92.4242 87.7741 91.4976 88.0025 90.6905 88.4747C90.6711 88.4747 90.6545 88.5022 90.6352 88.5078L84.3869 92.1313C84.3204 92.1711 84.2575 92.2163 84.1988 92.2667L84.0328 92.3636C82.6388 93.1713 80.9903 92.6321 79.682 91.451L83.3662 89.3073L91.252 84.735H91.2575L92.4856 84.0158C94.1282 83.0549 96.0223 82.6117 97.9207 82.7436V82.7382ZM83.0537 82.7989C84.6235 82.7126 86.1913 82.9998 87.6286 83.637L85.8584 84.6603L85.7394 84.738L81.9777 86.9202L76.6726 90.0042C76.3557 90.1876 76.1245 90.4893 76.0296 90.8429C75.9347 91.1965 75.9839 91.5732 76.1664 91.8906C78.0832 95.2263 82.2183 96.6148 85.4186 94.7589L91.6115 91.1633C91.6309 91.1633 91.6475 91.1354 91.6669 91.1326L92.0818 90.8672C93.072 90.2919 94.1645 90.5711 94.7177 91.3926C94.4324 91.431 94.1661 91.5576 93.9561 91.7545C93.7461 91.9515 93.6028 92.209 93.5461 92.4913C93.4895 92.7735 93.5224 93.0666 93.6402 93.3293C93.758 93.592 93.9548 93.8111 94.2032 93.9566L95.4618 94.6869H95.4673C95.5442 94.7393 95.6257 94.7848 95.7107 94.8227L107.743 101.801C107.915 101.897 108.066 102.027 108.187 102.182C108.308 102.338 108.396 102.516 108.446 102.707C108.497 102.897 108.508 103.096 108.48 103.291C108.452 103.486 108.384 103.674 108.282 103.842C108.189 104.015 108.063 104.166 107.91 104.288C107.757 104.41 107.58 104.499 107.392 104.55C107.203 104.601 107.006 104.614 106.812 104.586C106.618 104.559 106.433 104.492 106.266 104.39L92.8147 96.5899L91.3986 95.7684C89.8026 94.8307 88.4058 97.2371 90.0101 98.1609L91.4262 98.9824L92.2477 99.4582L104.877 106.783H104.888L106.293 107.598C106.466 107.694 106.617 107.824 106.738 107.979C106.859 108.135 106.948 108.313 106.998 108.504C107.049 108.694 107.061 108.893 107.033 109.088C107.005 109.284 106.938 109.471 106.835 109.64C106.743 109.812 106.616 109.964 106.463 110.085C106.31 110.207 106.134 110.296 105.945 110.347C105.756 110.398 105.559 110.41 105.365 110.382C105.171 110.354 104.986 110.287 104.819 110.185L103.403 109.366L89.952 101.566L88.5413 100.742C86.9454 99.8177 85.5596 102.21 87.1528 103.137L88.569 103.956L102.02 111.756C102.192 111.851 102.343 111.98 102.463 112.135C102.584 112.289 102.673 112.467 102.723 112.657C102.774 112.847 102.786 113.045 102.758 113.239C102.73 113.434 102.664 113.621 102.562 113.789C102.47 113.961 102.343 114.113 102.19 114.234C102.037 114.356 101.86 114.445 101.671 114.496C101.483 114.547 101.285 114.559 101.092 114.531C100.898 114.503 100.712 114.436 100.546 114.334L97.7105 112.693L95.0911 111.169L82.849 104.072C81.253 103.145 79.8618 105.538 81.4605 106.465L84.2901 108.108L96.3275 115.086C96.4997 115.182 96.6507 115.312 96.7716 115.467C96.8925 115.623 96.9807 115.801 97.0311 115.992C97.0814 116.182 97.0928 116.381 97.0646 116.576C97.0364 116.771 96.9692 116.959 96.8669 117.127C96.7745 117.299 96.6479 117.451 96.4949 117.572C96.3418 117.693 96.1656 117.782 95.9771 117.833C95.7885 117.884 95.5915 117.895 95.3983 117.867C95.205 117.839 95.0195 117.772 94.8532 117.669L80.8492 109.554H80.8326L75.5884 106.517C75.3035 106.354 75.0683 106.143 74.8083 105.955C74.6224 105.649 74.325 105.427 73.9786 105.336C72.3468 103.861 71.2724 101.87 70.9359 99.6965C70.5994 97.523 71.0214 95.2999 72.1309 93.4009L75.4832 87.562C76.2506 86.2024 77.3445 85.0552 78.6662 84.2241C79.9879 83.3931 81.4958 82.9014 83.0537 82.7989ZM57.1283 91.8271C56.7662 91.8235 56.413 91.9395 56.1234 92.157C55.8339 92.3745 55.6242 92.6813 55.5268 93.0301C55.4294 93.379 55.4498 93.7502 55.5849 94.0863C55.7199 94.4223 55.962 94.7044 56.2737 94.8889C56.4596 94.9963 56.6648 95.0661 56.8777 95.0941C57.0906 95.1221 57.3069 95.1077 57.5143 95.0519C57.7217 94.9962 57.916 94.9003 58.0861 94.7693C58.2563 94.6383 58.3989 94.4751 58.5058 94.2889C58.6467 94.0424 58.7214 93.7635 58.7228 93.4795C58.7241 93.1956 58.6519 92.916 58.5132 92.6682C58.3746 92.4204 58.1742 92.2129 57.9315 92.0655C57.6888 91.9181 57.4121 91.836 57.1283 91.8271ZM123.868 91.8271C123.584 91.836 123.308 91.9181 123.065 92.0655C122.822 92.2129 122.622 92.4204 122.483 92.6682C122.345 92.916 122.272 93.1956 122.274 93.4795C122.275 93.7635 122.35 94.0424 122.491 94.2889C122.598 94.4747 122.74 94.6376 122.91 94.7683C123.08 94.8991 123.274 94.9952 123.481 95.0509C123.688 95.1067 123.904 95.1209 124.117 95.0931C124.329 95.0654 124.534 94.9959 124.72 94.8889C125.033 94.7051 125.276 94.4233 125.412 94.087C125.548 93.7506 125.569 93.3787 125.472 93.0291C125.375 92.6796 125.165 92.3719 124.875 92.154C124.585 91.9361 124.231 91.82 123.868 91.8241V91.8271ZM73.9703 108.746C74.0532 108.796 74.1169 108.857 74.1998 108.909L76.302 110.127C76.2549 110.154 76.2135 110.168 76.172 110.193C76.0054 110.296 75.8196 110.363 75.6259 110.391C75.4322 110.419 75.2348 110.408 75.0459 110.357C74.857 110.306 74.6805 110.216 74.5274 110.095C74.3742 109.973 74.2477 109.821 74.1556 109.648C74.0008 109.374 73.9342 109.059 73.9703 108.746ZM79.0458 111.717L82.0164 113.44L80.4481 114.347C80.2819 114.45 80.0966 114.517 79.9036 114.545C79.7105 114.573 79.5137 114.561 79.3253 114.511C79.1369 114.46 78.9607 114.372 78.8075 114.251C78.6544 114.13 78.5275 113.979 78.4345 113.808C78.3323 113.64 78.2651 113.453 78.2369 113.258C78.2087 113.063 78.2201 112.864 78.2705 112.674C78.3209 112.484 78.4091 112.306 78.53 112.15C78.6508 111.995 78.8018 111.865 78.9739 111.77C79.0015 111.742 79.0209 111.739 79.0458 111.717ZM84.7658 115.036L87.7364 116.757L86.1377 117.68C85.9715 117.782 85.7862 117.85 85.5931 117.878C85.4001 117.906 85.2033 117.894 85.0149 117.844C84.8264 117.793 84.6503 117.705 84.4971 117.584C84.3439 117.463 84.217 117.313 84.1241 117.141C84.0224 116.972 83.9558 116.785 83.9282 116.589C83.9006 116.394 83.9125 116.195 83.9634 116.005C84.0142 115.814 84.1029 115.636 84.2241 115.481C84.3454 115.325 84.4967 115.195 84.669 115.1C84.7022 115.072 84.7354 115.058 84.7658 115.036Z" fill="#EDF1F7"/>
</g>
<defs>
<filter id="filter0_d_2_730" x="0.617188" y="0.617126" width="180.766" height="180.766" filterUnits="userSpaceOnUse" color-interpolation-filters="sRGB">
<feFlood flood-opacity="0" result="BackgroundImageFix"/>
<feColorMatrix in="SourceAlpha" type="matrix" values="0 0 0 0 0 0 0 0 0 0 0 0 0 0 0 0 0 0 127 0" result="hardAlpha"/>
<feOffset dy="-2"/>
<feGaussianBlur stdDeviation="12"/>
<feComposite in2="hardAlpha" operator="out"/>
<feColorMatrix type="matrix" values="0 0 0 0 0.890196 0 0 0 0 0.14902 0 0 0 0 0.509804 0 0 0 0.08 0"/>
<feBlend mode="normal" in2="BackgroundImageFix" result="effect1_dropShadow_2_730"/>
<feBlend mode="normal" in="SourceGraphic" in2="effect1_dropShadow_2_730" result="shape"/>
</filter>
<filter id="filter1_d_2_730" x="28.2739" y="48.4158" width="150.302" height="129.12" filterUnits="userSpaceOnUse" color-interpolation-filters="sRGB">
<feFlood flood-opacity="0" result="BackgroundImageFix"/>
<feColorMatrix in="SourceAlpha" type="matrix" values="0 0 0 0 0 0 0 0 0 0 0 0 0 0 0 0 0 0 127 0" result="hardAlpha"/>
<feOffset dy="-2"/>
<feGaussianBlur stdDeviation="12"/>
<feComposite in2="hardAlpha" operator="out"/>
<feColorMatrix type="matrix" values="0 0 0 0 0.890196 0 0 0 0 0.14902 0 0 0 0 0.509804 0 0 0 0.08 0"/>
<feBlend mode="normal" in2="BackgroundImageFix" result="effect1_dropShadow_2_730"/>
<feBlend mode="normal" in="SourceGraphic" in2="effect1_dropShadow_2_730" result="shape"/>
</filter>
<filter id="filter2_d_2_730" x="28.2769" y="48.4126" width="124.44" height="91.4801" filterUnits="userSpaceOnUse" color-interpolation-filters="sRGB">
<feFlood flood-opacity="0" result="BackgroundImageFix"/>
<feColorMatrix in="SourceAlpha" type="matrix" values="0 0 0 0 0 0 0 0 0 0 0 0 0 0 0 0 0 0 127 0" result="hardAlpha"/>
<feOffset dy="-2"/>
<feGaussianBlur stdDeviation="12"/>
<feComposite in2="hardAlpha" operator="out"/>
<feColorMatrix type="matrix" values="0 0 0 0 0.890196 0 0 0 0 0.14902 0 0 0 0 0.509804 0 0 0 0.08 0"/>
<feBlend mode="normal" in2="BackgroundImageFix" result="effect1_dropShadow_2_730"/>
<feBlend mode="normal" in="SourceGraphic" in2="effect1_dropShadow_2_730" result="shape"/>
</filter>
</defs>
</svg>
