<svg width="120" height="48" viewBox="0 0 120 48" fill="none" xmlns="http://www.w3.org/2000/svg">
<path d="M42.6411 30.5048C40.1965 22.7525 37.811 15.1428 35.3812 7.54487C35.1185 6.72572 34.6756 5.92735 34.1589 5.23879C32.9189 3.58862 31.5845 2.01265 30.0581 0.122079C31.2538 0.122079 32.1513 0.122079 33.0459 0.122079C36.1931 0.119111 39.3433 0.157695 42.4905 0.0834963C43.5622 0.0597529 44.0198 0.398097 44.3269 1.44578C45.6731 6.03123 47.1168 10.587 48.5281 15.1517C48.6727 15.6206 48.8528 16.0777 49.1038 16.7929C50.8811 14.3949 52.5521 12.157 54.2055 9.90734C56.3666 6.96613 58.507 4.01304 60.6682 1.07182C61.6602 -0.278591 64.9078 -0.379501 65.9942 0.920452C67.2578 2.4341 68.5362 3.9418 69.6906 5.53558C70.0331 6.01045 70.2102 6.82663 70.0744 7.39351C68.3118 14.7273 66.4932 22.0432 64.6391 29.3532C64.5269 29.7925 64.0073 30.4454 63.6619 30.4543C60.4733 30.5404 57.2818 30.5048 53.9014 30.5048C54.7457 26.9967 55.5547 23.64 56.3607 20.2832C56.2721 20.2417 56.1865 20.1972 56.0979 20.1556C54.3088 22.6071 52.3396 24.9518 50.7778 27.5428C49.3665 29.8815 47.663 31.0153 44.941 30.5226C44.2294 30.395 43.4766 30.5018 42.6381 30.5018L42.6411 30.5048Z" fill="#F7F9FC"/>
<path d="M68.0399 0.160693H84.8005C84.1539 2.87932 83.5369 5.48516 82.8077 8.55103C83.8941 7.49742 84.6854 6.76137 85.4412 5.98971C87.0945 4.30096 88.7094 2.56768 90.3923 0.908612C90.7761 0.528717 91.3695 0.145854 91.8714 0.13695C95.4585 0.0746234 99.0486 0.110239 102.639 0.12211C102.822 0.12211 103.005 0.205212 103.456 0.315026C98.467 5.20321 93.6103 9.9608 88.6769 14.7926C92.329 19.9657 95.9309 25.0616 99.6863 30.3772H81.6621C82.9228 28.8428 84.0831 27.43 85.3113 25.9342C83.7111 23.5153 82.1227 21.1113 80.3454 18.4224C79.6693 21.1054 79.067 23.4678 78.4795 25.8303C78.1695 27.0709 77.9392 28.3382 77.5436 29.5521C77.4166 29.9379 76.8852 30.4514 76.528 30.4573C73.3867 30.5285 70.2454 30.4989 66.8442 30.4989C67.3402 28.4184 67.786 26.4833 68.2643 24.5571C69.711 18.737 71.1901 12.9228 72.5836 7.09081C72.7135 6.54768 72.5039 5.75821 72.1644 5.29818C70.9155 3.60646 69.5427 2.00971 68.0429 0.157725L68.0399 0.160693Z" fill="#F7F9FC"/>
<path d="M15.878 12.1333H25.8983C25.3875 14.2317 24.9033 16.2142 24.3896 18.3215H14.2926C13.7877 20.307 13.3094 22.1916 12.778 24.287H25.8422C25.2192 26.3853 24.6908 28.2522 24.0885 30.0952C24.0206 30.3 23.5452 30.49 23.2589 30.487C15.8898 30.4247 8.52069 30.3356 1.1516 30.2466C1.06894 30.2466 0.989221 30.1546 0.803223 30.0389C1.83064 25.9342 2.86987 21.7939 3.9032 17.6507C4.57043 14.9796 5.19633 12.2995 5.92557 9.64918C6.04661 9.21289 6.5928 8.58369 6.95594 8.57479C10.0913 8.48872 13.2297 8.52433 16.5688 8.52433C16.3326 9.76493 16.123 10.8482 15.878 12.1333Z" fill="#F7F9FC"/>
<path d="M117.353 8.31657C116.358 12.3915 115.414 16.3122 114.442 20.2239C113.695 23.2363 112.886 26.231 112.175 29.2494C111.962 30.1516 111.64 30.5523 110.634 30.5286C107.643 30.4573 104.649 30.5018 101.425 30.5018C103.262 22.99 105.054 15.6622 106.849 8.3136H117.353V8.31657Z" fill="#F7F9FC"/>
<path d="M32.6471 6.92462C34.3565 12.3619 36.1161 17.7872 37.7251 23.2542C37.9761 24.103 37.6277 25.1715 37.4122 26.1034C37.0786 27.5339 37.0313 29.4542 36.0984 30.2021C35.1743 30.9411 33.3025 30.5078 31.847 30.5345C30.0962 30.5671 28.3455 30.5434 26.4678 30.5434C28.4547 22.5597 30.3974 14.7481 32.34 6.93649C32.4404 6.93353 32.5437 6.93056 32.6441 6.92759L32.6471 6.92462Z" fill="#F7F9FC"/>
<path d="M31.0354 6.20635C28.6322 6.20635 26.5803 6.20635 24.5284 6.20635C19.0222 6.20635 13.519 6.18261 8.01287 6.22713C7.06812 6.23603 6.47469 5.93924 5.94031 5.17054C4.81547 3.55599 3.59909 2.00673 2.26758 0.223004C2.93186 0.160678 3.419 0.0775757 3.90909 0.0775757C10.9357 0.0835115 17.9653 0.0775757 24.9919 0.148806C25.6119 0.154742 26.3972 0.525733 26.8106 0.991698C28.2129 2.56767 29.4824 4.26236 31.0354 6.20635Z" fill="#F7F9FC"/>
<path d="M51.6426 45.6115H53.8185C54.3765 43.3173 54.9787 41.0439 55.4659 38.7467C55.7257 37.5091 56.1951 36.9541 57.5975 37.0194C60.4908 37.1559 63.3989 37.1826 66.2892 37.0134C68.0164 36.9125 69.0763 37.4942 69.8675 39.3076C68.6659 39.3076 67.5824 39.3076 66.4989 39.3076C65.7608 39.3076 65.0256 39.2958 64.2875 39.3106C62.5663 39.3492 60.7742 39.5777 59.7202 37.4645C59.0943 39.8448 58.4448 42.2221 57.8514 44.6113C57.0336 47.8968 57.0513 47.8998 53.7269 47.8938C52.8914 47.8938 52.0559 47.8938 51.2204 47.8938C48.6518 47.8909 47.5919 46.4841 48.2444 43.9495C48.392 43.3767 48.4983 42.792 48.6696 42.2281C49.2098 40.4562 49.818 38.6873 47.3823 37.1767H53.6709C53.0036 39.9457 52.3423 42.697 51.6426 45.6115Z" fill="#F7F9FC"/>
<path d="M85.9403 38.0107C85.3085 39.4264 84.3076 39.6786 81.7656 39.088C81.8955 38.4796 82.0254 37.8682 82.1996 37.0609C82.9554 37.0609 83.726 37.0609 84.4995 37.0609C87.5493 37.0609 90.5961 37.0609 93.6459 37.0609C95.9281 37.0609 97.1031 38.5597 96.554 40.756C96.0403 42.8128 95.5768 44.8814 94.9774 46.9115C94.8564 47.3181 94.2334 47.8256 93.8172 47.8464C91.904 47.9443 89.985 47.9235 88.066 47.876C86.6961 47.8434 85.4915 46.125 85.8163 44.7775C86.1381 43.436 86.392 42.0737 86.7964 40.759C87.1419 39.64 87.0828 38.7348 85.9432 38.0077L85.9403 38.0107ZM89.3148 45.8519C90.2419 45.6175 91.4287 45.6145 91.5616 45.2376C92.2229 43.3678 92.6037 41.4 93.1293 39.2869C92.0841 39.4531 91.0567 38.7408 90.7172 40.109C90.2655 41.9105 89.8344 43.718 89.3148 45.8519Z" fill="#F7F9FC"/>
<path d="M34.5693 47.9057C35.3222 46.2021 36.3289 45.4305 38.0679 45.6382C39.3285 45.7896 40.6187 45.6679 42.0949 45.6679C42.6204 43.6408 43.1518 41.59 43.701 39.4649C42.3016 39.1295 41.221 39.0613 41.1 40.8213C41.0822 41.0646 41.0114 41.305 40.9523 41.5454C40.4091 43.7397 38.9201 44.7399 36.4854 44.546C36.7127 43.5488 36.9194 42.5694 37.1615 41.5989C37.5079 40.2 37.1448 38.6873 36.0721 37.0609C38.6908 37.0609 41.162 37.0401 43.6331 37.0728C44.5601 37.0846 45.4872 37.1974 46.4083 37.3161C47.3767 37.4408 47.793 38.0403 47.5656 38.9871C46.9929 41.3763 46.4112 43.7654 45.7765 46.1368C45.3779 47.6267 44.0818 47.8493 42.8448 47.882C40.1493 47.9502 37.4508 47.9027 34.5693 47.9027V47.9057Z" fill="#F7F9FC"/>
<path d="M23.7723 47.6714C20.7549 48.4638 18.5377 47.8672 17.3774 44.7034C16.5705 47.0481 15.0234 48.0602 12.7363 47.7396C13.3298 45.3148 13.9202 42.9049 14.5284 40.4148H18.2336C18.1775 40.8807 18.1273 41.2962 18.0358 42.0501C19.143 41.1716 20.7697 41.3111 20.5985 39.3077C19.323 39.3077 18.0978 39.2098 16.8933 39.3315C15.1573 39.5066 14.0058 38.8032 13.1644 37.0818C16.3707 37.0818 19.4825 37.0343 22.5943 37.1144C23.4298 37.1352 24.5635 39.2365 24.4306 40.1061C24.1531 41.9551 23.4416 43.4153 21.0325 43.6053C22.0422 45.1041 22.8747 46.3358 23.7752 47.6714H23.7723Z" fill="#F7F9FC"/>
<path d="M24.2832 37.064C27.4983 37.064 30.4773 37.0343 33.4532 37.0788C34.5545 37.0966 35.8565 38.9842 35.5907 40.0823C35.0357 42.3736 34.4954 44.6678 33.837 46.9293C33.7189 47.33 33.0812 47.8227 32.6561 47.8464C30.7991 47.9533 28.9302 47.9325 27.0673 47.9058C25.5527 47.885 24.3127 46.1577 24.6729 44.65C24.9002 43.6943 25.1335 42.7416 25.352 41.7859C25.7279 40.1417 25.3716 38.5677 24.2832 37.064ZM31.9298 39.554C31.8294 39.4086 31.732 39.2632 31.6316 39.1178C30.9792 39.3582 29.8956 39.4442 29.7451 39.8657C29.0956 41.691 28.7176 43.6142 28.2157 45.6027H30.4241C30.9349 43.5459 31.4309 41.5485 31.9298 39.5511V39.554Z" fill="#F7F9FC"/>
<path d="M6.72843 40.3256V41.8927C7.80604 41.2041 9.33241 41.2872 9.22317 39.3106C7.88575 39.3106 6.51586 39.183 5.17844 39.3432C3.47198 39.548 2.67189 38.6844 2.0578 37.0757C5.1253 37.0757 8.09537 37.0223 11.0566 37.1054C11.9925 37.1321 13.1055 39.1889 12.9727 40.1535C12.7571 41.7235 12.149 42.8751 10.5193 43.433C9.27631 43.8604 8.1308 44.5757 6.93214 45.1396C6.06415 45.5462 5.31425 45.9855 5.1932 47.1044C5.16073 47.3923 4.64406 47.8315 4.33111 47.8493C2.93169 47.9295 1.52342 47.8849 0 47.7454C2.11979 46.1695 2.29989 43.7714 2.80179 41.5662C3.02617 40.5838 3.3716 40.2247 4.33702 40.3138C5.06625 40.382 5.80729 40.3286 6.72548 40.3286L6.72843 40.3256Z" fill="#F7F9FC"/>
<path d="M101.201 43.163C100.853 44.4927 100.522 45.4513 100.366 46.4396C100.188 47.5675 99.6776 48.0631 98.5174 47.9295C97.8088 47.8494 97.0855 47.9147 96.1938 47.9147C97.0677 44.3621 97.8619 41.038 98.727 37.7347C98.8008 37.4468 99.3204 37.1203 99.657 37.0907C100.628 37.0046 101.611 37.061 102.692 37.061C104.159 40.5839 105.615 44.0831 107.056 47.5437C102.707 49.2711 102.497 45.7184 101.195 43.163H101.201Z" fill="#F7F9FC"/>
<path d="M107.442 6.15289C107.859 4.36916 108.201 2.73977 108.641 1.13709C108.747 0.745321 109.167 0.151735 109.453 0.1458C112.68 0.0745693 115.907 0.101281 119.394 0.101281C118.88 2.26193 118.419 4.19109 117.953 6.15289H107.439H107.442Z" fill="#F7F9FC"/>
<path d="M61.1197 40.3969H64.8633C64.45 42.145 64.0573 43.8041 63.6263 45.6353H68.4534C67.6001 47.1074 66.8325 48.1758 65.0965 47.9117C64.3762 47.8019 63.6292 47.8968 62.8941 47.8939C60.8363 47.882 59.6435 46.3387 60.1425 44.3353C60.4643 43.0502 60.7802 41.7651 61.1168 40.3939L61.1197 40.3969Z" fill="#F7F9FC"/>
<path d="M73.3957 40.388H77.1452C76.5518 42.8959 75.979 45.3088 75.3856 47.8078H70.0034C72.7255 45.852 72.5602 43.0057 73.3957 40.388Z" fill="#F7F9FC"/>
<path d="M85.1843 40.3257C84.5791 42.8217 84.0417 45.107 83.4424 47.3745C83.3834 47.6031 82.9553 47.8702 82.6896 47.8821C81.3344 47.9325 79.9763 47.9058 78.1606 47.9058C80.4251 45.9499 80.5373 43.4717 81.2104 41.2072C81.3197 40.8392 81.8747 40.4266 82.2733 40.3673C83.1324 40.2396 84.024 40.3287 85.1843 40.3287V40.3257Z" fill="#F7F9FC"/>
<path d="M80.192 39.2929C77.4581 39.2929 74.7154 39.4205 71.9992 39.2098C71.2729 39.1534 70.6263 38.0671 69.9443 37.4557C70.0152 37.3251 70.086 37.1975 70.1569 37.0669C72.876 37.0669 75.604 36.9393 78.3084 37.15C79.0642 37.2094 79.7432 38.2571 80.4547 38.8506C80.3662 38.999 80.2805 39.1474 80.192 39.2958V39.2929Z" fill="#F7F9FC"/>
<path d="M107.141 45.0595C106.536 43.6112 105.7 42.2103 105.402 40.6996C105.195 39.649 105.656 38.4232 106.001 37.337C106.072 37.1114 106.952 37.1055 107.466 37.0669C108.047 37.0224 108.632 37.058 109.444 37.058C108.765 39.8449 108.121 42.4745 107.477 45.107L107.141 45.0595Z" fill="#F7F9FC"/>
</svg>
