<svg width="153" height="80" viewBox="0 0 153 80" fill="none" xmlns="http://www.w3.org/2000/svg">
<g clip-path="url(#clip0_2_1380)">
<path d="M94.3911 32.5421C94.8225 32.5747 95.2518 32.6337 95.6831 32.6337C98.4663 32.6459 101.256 32.8087 104.016 32.2816C104.148 32.2572 104.382 32.304 104.425 32.3895C104.493 32.5258 104.511 32.8107 104.425 32.8758C104.195 33.0529 103.897 33.2624 103.632 33.2543C101.145 33.1831 98.6593 33.0773 96.172 32.9694C93.3457 32.8473 90.5194 32.6784 87.6931 32.6052C86.6538 32.5787 85.6268 32.422 84.5854 32.4342C83.468 32.4465 82.3486 32.3732 81.2312 32.3183C81.0361 32.3081 80.8451 32.2023 80.652 32.1392C80.6664 32.0619 80.6787 31.9825 80.6931 31.9052C82.7163 32.0151 84.7394 32.1249 86.7934 32.2369C86.7975 31.7342 86.8016 31.3456 86.1998 31.3232C83.7371 31.2316 81.2723 31.1278 78.8096 31.0302C78.7233 31.0261 78.635 31.0505 78.4378 31.0749C78.6678 32.129 78.8897 33.1526 79.1136 34.1761C79.0704 34.1883 79.0273 34.2005 78.9842 34.2107C78.7685 33.4069 78.5302 32.6072 78.3433 31.7973C78.2303 31.3049 78.1523 30.8389 77.4498 30.902C77.6429 30.8206 77.836 30.7392 78.064 30.6415C76.8439 23.3789 77.265 16.1835 78.9636 8.9739C78.7274 8.90471 78.4953 8.82942 78.2591 8.77041C76.2031 8.24744 74.145 7.73261 72.093 7.19947C71.6658 7.08755 71.3926 7.07534 71.2221 7.59831C69.1743 13.9167 68.1535 20.3531 69.0285 26.9889C69.2667 28.7979 69.6734 30.5845 69.961 32.3773C67.4161 23.847 67.9173 15.2984 69.8624 6.64801C68.1761 6.21865 66.4671 5.78318 64.6391 5.31719C64.6391 5.69568 64.6391 5.97853 64.6391 6.26342C64.6473 8.30035 64.6699 10.3352 64.6473 12.3701C64.6432 12.6713 64.5138 13.0559 64.3043 13.2614C59.1714 18.2836 54.02 23.2853 48.8706 28.2912C48.7658 28.395 48.6488 28.4865 48.468 28.5069C50.2303 26.6816 51.9947 24.8583 53.755 23.033C56.8483 19.8301 59.9437 16.6292 63.0205 13.41C63.228 13.1922 63.3779 12.8239 63.3759 12.5248C63.3677 8.49773 63.3266 4.47271 63.2978 0.445643C63.2978 0.315409 63.3307 0.187211 63.3553 0.0020349C63.8647 0.115989 64.4131 -0.0671516 64.7151 0.561632C64.7931 0.724424 65.1485 0.771226 65.3867 0.838378C72.6866 2.92822 79.9886 5.01399 87.2884 7.1018C87.9211 7.2829 88.5537 7.47215 89.1555 7.76924C81.0299 5.7201 72.9064 3.66892 64.6453 1.58519C64.6453 2.50699 64.6165 3.31078 64.6699 4.10846C64.6802 4.25497 64.9985 4.44625 65.208 4.50323C68.3281 5.37213 71.4522 6.22272 74.5763 7.07534C82.6731 9.28321 90.77 11.4911 98.8668 13.6989C101.749 14.4844 104.628 15.2719 107.51 16.0615C107.705 16.1144 107.898 16.1815 108.067 16.3382C106.619 15.978 105.17 15.6178 103.648 15.2394C102.053 19.5187 100.728 23.79 101.8 28.4031C100.551 23.8633 101.132 19.4312 102.673 14.985C100.74 14.4905 98.8462 14.0062 96.9073 13.5097C96.819 13.6766 96.7163 13.8231 96.6608 13.9859C95.49 17.3902 94.3131 20.7926 93.8879 24.3923C93.6538 26.3825 93.7236 28.3644 94.0029 30.3444C94.0604 30.7453 94.2289 30.9223 94.6705 30.8938C97.5872 30.7066 100.516 30.5927 103.209 29.2537C103.242 29.2374 103.293 29.2639 103.398 29.2781C103.402 29.8764 102.993 30.202 102.525 30.3281C101.342 30.6476 100.146 30.9671 98.9346 31.1238C97.4023 31.3232 95.8495 31.3619 94.27 31.4738C94.3151 31.8523 94.3562 32.2043 94.3973 32.5563C94.3357 32.4342 94.235 32.3183 94.2227 32.1941C94.1611 31.4636 93.7092 31.4066 93.0848 31.4168C91.3102 31.4473 89.5355 31.4026 87.7609 31.3944C87.5041 31.3944 87.2453 31.4209 87.0009 31.4351C86.9249 32.0659 87.1673 32.2999 87.7177 32.3162C88.8084 32.3508 89.8991 32.4363 90.9897 32.4749C92.1235 32.5156 93.2594 32.5238 94.3932 32.5462L94.3911 32.5421ZM88.1943 11.3405C87.9889 11.2713 87.843 11.2103 87.6931 11.1716C85.5282 10.6201 83.3571 10.0951 81.2045 9.50501C80.6027 9.34018 80.387 9.50501 80.2597 10.0585C79.6024 12.9175 78.789 15.7501 78.2858 18.6356C77.6224 22.4409 77.6881 26.2848 78.2837 30.1124C78.3597 30.6049 78.5508 30.729 79.0293 30.729C80.4199 30.729 81.8104 30.7982 83.201 30.8206C84.2896 30.8369 85.3782 30.8246 86.51 30.8246C85.179 24.1787 85.9575 17.728 88.1943 11.3385V11.3405ZM95.5311 13.1658C93.6661 12.6876 91.8771 12.2399 90.0942 11.7658C89.6238 11.6396 89.5519 11.9326 89.4513 12.2419C88.9131 13.8984 88.3462 15.5466 87.843 17.2132C86.5593 21.46 85.8958 25.7618 86.6661 30.1979C86.7565 30.7188 86.9269 30.9508 87.4774 30.9447C89.326 30.9305 91.1746 30.9508 93.0232 30.9467C93.282 30.9467 93.5387 30.8857 93.8386 30.847C92.7028 24.7667 93.4299 18.9388 95.5311 13.1638V13.1658Z" fill="#E4E9F2"/>
<path d="M151.995 65.4606C151.886 65.4952 151.778 65.5583 151.669 65.5583C101.231 65.5624 50.7932 65.5624 0.357416 65.5543C0.283472 65.5543 0.209528 65.4261 0.0020752 65.2348H151.825C151.882 65.3101 151.94 65.3874 151.995 65.4627V65.4606Z" fill="#E4E9F2"/>
<path d="M71.1276 38.4046C83.7042 37.7494 96.2766 37.0962 108.937 36.4369C107.196 29.7278 107.8 23.2121 109.726 16.6902C110.086 16.7737 110.408 16.851 110.774 16.9365C110.441 18.0394 110.102 19.0853 109.81 20.1455C108.401 25.2673 108.223 30.3993 109.683 35.5497C109.862 36.1785 110.071 36.4084 110.79 36.3555C113.497 36.154 116.213 36.0421 118.926 35.9017C119.117 35.8915 119.308 35.918 119.518 36.0604C119.386 36.0991 119.257 36.1663 119.123 36.1744C114.364 36.4898 109.603 36.7991 104.844 37.1125C98.8092 37.5093 92.7746 37.9102 86.74 38.3029C82.2992 38.5918 77.8565 38.8706 73.4157 39.1535C72.8694 39.1881 72.321 39.2064 71.7767 39.2735C71.1522 39.3509 70.9222 39.127 71.1255 38.4046H71.1276Z" fill="#E4E9F2"/>
<path d="M115.069 38.6061C113.918 38.6895 112.768 38.7791 111.616 38.8544C104.988 39.2796 98.3594 39.6968 91.7332 40.1241C84.7866 40.5718 77.8421 41.0256 70.8955 41.4773C69.6426 41.5587 68.3917 41.6625 67.1387 41.7195C66.9518 41.7276 66.5903 41.5343 66.5903 41.4326C66.5903 40.7305 66.0542 40.4477 65.5715 40.293C64.0598 39.8108 62.5399 39.2654 60.9788 39.0416C55.8315 38.3049 50.6411 38.4799 45.4609 38.5756C42.4477 38.6325 39.4366 38.6855 36.4234 38.7384C36.0228 38.7445 35.6223 38.7384 35.2218 38.7384C35.2218 38.6753 35.2218 38.6142 35.2197 38.5512C42.2896 38.3477 49.3594 38.0913 56.4313 37.9671C59.2165 37.9183 62.0017 38.2418 64.6657 39.1352C65.7174 39.4872 66.6951 40.0468 67.72 40.4843C68.0425 40.6227 68.406 40.7651 68.7429 40.7488C76.242 40.3724 83.7391 39.9715 91.2382 39.5808C95.9336 39.3366 100.629 39.1026 105.324 38.8584C108.356 38.6997 111.386 38.5308 114.417 38.368C114.631 38.3558 114.845 38.368 115.058 38.368L115.069 38.6041V38.6061Z" fill="#E4E9F2"/>
<path d="M11.4017 61.2077C11.5722 61.1263 11.7448 60.9737 11.9152 60.9757C12.6506 60.9859 12.9258 60.6278 12.9196 59.9318C12.9094 58.8472 12.9525 57.7606 12.9279 56.674C12.9237 56.5071 12.6814 56.2019 12.5458 56.1998C10.6335 56.1693 8.72128 56.1795 6.80491 56.1795C6.80491 57.6629 6.77615 59.0589 6.81928 60.4507C6.83572 60.9757 7.36154 60.8781 7.72099 60.9737C7.89968 61.0205 8.05373 61.165 8.21805 61.2647C8.04962 61.3298 7.8812 61.4519 7.71072 61.4539C6.41465 61.4702 5.11858 61.4621 3.82251 61.4621C3.7917 61.3868 3.76089 61.3115 3.72803 61.2382C3.90262 61.1467 4.07721 60.9757 4.2518 60.9757C4.94194 60.9757 5.24387 60.6603 5.23976 59.9827C5.22744 57.4045 5.22539 54.8263 5.22744 52.246C5.22744 51.6396 4.97891 51.3242 4.3319 51.3242C4.1491 51.3242 3.96629 51.1614 3.78349 51.0739C3.98272 50.9885 4.17991 50.8318 4.3812 50.8277C5.49857 50.8033 6.61799 50.8073 7.73742 50.8277C7.89763 50.8297 8.05579 50.9742 8.21394 51.0536C8.064 51.1472 7.92022 51.2998 7.76001 51.3222C6.82134 51.4585 6.78642 51.4728 6.76383 52.4068C6.74123 53.3103 6.73712 54.2158 6.73096 55.1213C6.73096 55.2068 6.7782 55.2902 6.81723 55.4205H12.8457C12.8457 54.1975 12.8806 53.0091 12.8067 51.8268C12.7964 51.6478 12.2747 51.4972 11.9892 51.3385C11.8146 51.2408 11.6359 51.1512 11.4572 51.0556C11.64 50.9742 11.8187 50.8277 12.0036 50.8236C13.1209 50.8033 14.2404 50.8033 15.3598 50.8257C15.5385 50.8297 15.7131 50.9844 15.8897 51.0678C15.7336 51.1553 15.5734 51.3222 15.4193 51.3161C14.6737 51.2896 14.419 51.6417 14.4252 52.3478C14.4458 54.8588 14.419 57.3699 14.4396 59.881C14.4478 60.8414 14.4909 60.8414 15.4358 60.9717C15.596 60.994 15.7377 61.1446 15.8897 61.2362C15.7295 61.3115 15.5713 61.4499 15.4111 61.4519C14.113 61.4702 12.8149 61.4621 11.5147 61.4621C11.4757 61.3766 11.4367 61.2891 11.3976 61.2036L11.4017 61.2077Z" fill="#E4E9F2"/>
<path d="M41.6077 61.2789C42.6943 60.6115 42.3307 59.5472 42.3657 58.6437C42.4437 56.5905 42.3841 54.5332 42.3903 52.476C42.3903 51.8248 42.2897 51.2916 41.4373 51.3222C41.3222 51.3262 41.201 51.1289 41.0819 51.0251C41.2072 50.9579 41.3325 50.8297 41.4578 50.8297C43.5549 50.8236 45.6623 50.7137 47.7471 50.8704C50.9554 51.1126 52.8143 53.8312 52.0667 56.9426C51.4381 59.5574 49.4786 61.2647 46.7468 61.4214C45.0769 61.517 43.3988 61.4397 41.7248 61.4397C41.6858 61.3868 41.6468 61.3339 41.6098 61.2789H41.6077ZM43.8445 56.0818C43.8445 57.3251 43.8712 58.5705 43.8343 59.8118C43.8117 60.5199 44.1013 60.7906 44.7935 60.756C45.4754 60.7214 46.1676 60.7804 46.8434 60.7031C48.3304 60.5321 49.4642 59.8077 50.0681 58.4097C50.6063 57.1664 50.6925 55.862 50.4152 54.5516C50.0784 52.9603 49.1048 51.9082 47.4657 51.6417C46.5311 51.489 45.5617 51.548 44.6086 51.5033C44.0499 51.4789 43.8384 51.7515 43.8425 52.2826C43.8548 53.5483 43.8466 54.8141 43.8445 56.0818Z" fill="#E4E9F2"/>
<path d="M72.0212 55.7481C72.4402 55.7257 72.8181 55.7216 73.1919 55.6809C74.5907 55.5344 75.441 54.6716 75.4472 53.414C75.4513 52.4515 74.9974 51.8268 74.069 51.5501C73.8307 51.4789 73.5801 51.43 73.3316 51.4056C71.7398 51.2408 71.4501 51.4707 71.4358 53.0356C71.4152 55.3187 71.446 57.6019 71.4214 59.885C71.4132 60.6115 71.6535 60.992 72.4299 60.9818C72.5757 60.9818 72.7236 61.1609 72.8694 61.2586C72.7257 61.3298 72.5819 61.46 72.4361 61.4621C71.2735 61.4804 70.1089 61.4824 68.9463 61.4621C68.78 61.46 68.6177 61.3196 68.4534 61.2423C68.6033 61.1507 68.7553 60.9778 68.9052 60.9778C69.6899 60.9879 69.922 60.5789 69.9158 59.8687C69.8932 57.3373 69.8891 54.8059 69.8994 52.2725C69.9014 51.6193 69.6344 51.3201 68.9648 51.3201C68.7943 51.3201 68.6239 51.1329 68.4534 51.0332C68.6197 50.96 68.7861 50.8277 68.9545 50.8257C70.6655 50.8053 72.3765 50.8053 74.0875 50.8073C74.3607 50.8073 74.6338 50.8358 74.905 50.8745C75.856 51.0047 76.5995 51.43 76.9035 52.3844C77.2219 53.3876 76.9856 54.3196 76.201 54.9789C75.5992 55.4876 74.8269 55.799 74.069 56.2324C74.1984 56.4054 74.3832 56.6536 74.5702 56.8978C75.3794 57.962 76.1661 59.0466 77.0144 60.0804C77.3122 60.4426 77.7723 60.6746 78.1523 60.9737C78.2447 61.047 78.3084 61.1528 78.3844 61.2443C78.2797 61.3054 78.179 61.4153 78.0722 61.4214C77.5484 61.4438 77.0226 61.458 76.4989 61.4295C76.3448 61.4214 76.1538 61.3013 76.0552 61.1752C74.716 59.4597 73.3912 57.7341 72.0663 56.0085C72.0417 55.978 72.0499 55.9231 72.0191 55.746L72.0212 55.7481Z" fill="#E4E9F2"/>
<path d="M89.2048 53.6155C89.3896 52.5207 89.6649 51.5358 90.9157 51.0597C92.8527 50.323 94.7197 50.4105 96.5375 51.3323C97.8397 51.9937 98.5956 53.1108 98.7969 54.5434C99.1112 56.7899 98.8421 58.8981 96.9997 60.5016C95.2373 62.0359 91.8339 62.1275 89.9647 60.7214C88.4571 59.5879 88.1819 57.96 88.1819 56.2364C88.1819 55.7359 88.5886 55.8356 88.8864 55.8356C91.3964 55.8295 93.9064 55.8335 96.4184 55.8295C97.2852 55.8295 97.2913 55.8213 97.2564 54.9565C97.1907 53.3937 96.6217 52.126 95.0648 51.5114C93.3949 50.8501 91.7065 51.2143 90.5378 52.4515C90.242 52.7629 89.9997 53.1231 89.7224 53.4507C89.6217 53.5687 89.4841 53.6582 89.3629 53.762C89.3116 53.7132 89.2582 53.6643 89.2068 53.6155H89.2048ZM97.1393 56.442C94.8306 56.442 92.5137 56.4379 90.1948 56.4562C90.0798 56.4562 89.8929 56.6536 89.8641 56.7859C89.4533 58.7841 91.0821 60.876 93.1299 61.0042C95.6173 61.1589 97.4762 59.0873 97.1373 56.444L97.1393 56.442Z" fill="#E4E9F2"/>
<path d="M56.3389 53.8312C56.1191 53.1536 56.5484 51.8858 57.0208 51.5521C58.9782 50.1664 62.3735 50.2722 64.2159 51.8004C65.816 53.1271 66.0481 54.928 65.8078 56.8083C65.2039 61.5618 61.0897 62.3961 57.9615 61.2789C56.0903 60.6095 55.3139 59.0894 55.1804 57.2112C55.0613 55.5466 55.0859 55.8458 56.4375 55.8376C58.7872 55.8234 61.139 55.8112 63.4888 55.8458C64.1173 55.8559 64.2549 55.6402 64.2365 55.0644C64.1748 53.3266 63.4005 52.0242 62.0633 51.5236C60.2764 50.8562 58.6085 51.2245 57.3884 52.5716C57.0454 52.9501 56.7312 53.3571 56.3389 53.8292V53.8312ZM64.1009 56.4725C63.8585 56.4583 63.6572 56.4359 63.4559 56.4359C61.3835 56.4359 59.313 56.4318 57.2406 56.4542C57.1009 56.4542 56.8667 56.6414 56.838 56.7757C56.419 58.66 57.9451 60.758 59.8717 60.9798C62.4536 61.2789 64.3946 59.2481 64.1009 56.4725Z" fill="#E4E9F2"/>
<path d="M21.2095 60.7031C22.5405 60.7031 23.7483 60.7112 24.954 60.699C25.6585 60.6929 25.9111 60.2533 26.0261 59.6225C26.0775 59.3376 25.9686 58.8248 26.6423 58.8879C26.5951 59.6571 26.5643 60.4161 26.4883 61.169C26.478 61.2789 26.2582 61.456 26.135 61.456C23.8078 61.4621 21.4827 61.4478 19.1555 61.4316C19.1206 61.4316 19.0878 61.3786 19.0056 61.3115C20.1312 60.408 19.6382 59.1403 19.6937 58.019C19.782 56.1917 19.6978 54.3562 19.7122 52.5228C19.7183 51.8451 19.6588 51.2835 18.7612 51.314C18.6564 51.3181 18.5455 51.1431 18.4366 51.0536C18.5476 50.9722 18.6605 50.8216 18.7714 50.8216C21.2321 50.8073 23.6928 50.8114 26.2233 50.8114C26.1412 51.5684 26.0734 52.2542 25.9789 52.9379C25.9666 53.0254 25.8125 53.119 25.7057 53.1515C25.6646 53.1638 25.566 53.0172 25.5065 52.9338C25.4839 52.9013 25.4942 52.8463 25.4859 52.8015C25.2703 51.6172 25.2682 51.5948 24.0523 51.5216C23.3251 51.4768 22.5919 51.5135 21.8627 51.4951C21.4622 51.485 21.2917 51.6376 21.2896 52.0486C21.2855 53.0661 21.2609 54.0835 21.2219 55.101C21.2075 55.4795 21.3513 55.6463 21.7292 55.6402C22.3906 55.628 23.052 55.6117 23.7133 55.6158C24.2864 55.6199 24.6109 55.4021 24.6274 54.7896C24.6315 54.637 24.8061 54.4905 24.9006 54.3399C24.9807 54.5027 25.1244 54.6614 25.1285 54.8263C25.1511 55.6626 25.1491 56.499 25.1265 57.3353C25.1224 57.4757 24.9766 57.612 24.8944 57.7504C24.7979 57.6243 24.6192 57.4961 24.6212 57.3699C24.6253 56.5132 24.1283 56.3016 23.3806 56.3321C22.8116 56.3565 22.2386 56.3138 21.6717 56.3606C21.5094 56.3728 21.2321 56.5824 21.228 56.7085C21.1952 58.0129 21.2075 59.3214 21.2075 60.6949L21.2095 60.7031Z" fill="#E4E9F2"/>
<path d="M132.022 61.3074C133.105 60.6318 132.745 59.5879 132.772 58.6763C132.83 56.5987 132.795 54.517 132.801 52.4373C132.801 51.8146 132.708 51.2957 131.885 51.3222C131.766 51.3262 131.638 51.135 131.515 51.0353C131.634 50.962 131.753 50.8216 131.872 50.8216C134.292 50.8155 136.71 50.8257 139.129 50.8358C139.168 50.8358 139.207 50.8765 139.296 50.9274C139.23 51.5501 139.172 52.1972 139.082 52.8382C139.065 52.9582 138.916 53.06 138.827 53.1719C138.743 53.062 138.605 52.9623 138.579 52.8402C138.31 51.605 138.306 51.5806 137.032 51.5175C136.328 51.4829 135.619 51.5135 134.91 51.5033C134.549 51.4992 134.368 51.6315 134.366 52.0161C134.366 53.0335 134.347 54.051 134.319 55.0684C134.308 55.4713 134.477 55.6504 134.879 55.6443C135.518 55.6362 136.157 55.6362 136.796 55.6341C137.35 55.6321 137.716 55.451 137.702 54.808C137.698 54.6574 137.882 54.5048 137.979 54.3521C138.057 54.5088 138.199 54.6655 138.203 54.8242C138.225 55.6606 138.223 56.4969 138.203 57.3333C138.199 57.4737 138.061 57.612 137.985 57.7504C137.882 57.6263 137.693 57.5001 137.693 57.376C137.704 56.5132 137.207 56.3402 136.457 56.3423C133.756 56.3504 134.352 56.0065 134.267 58.426C134.247 58.9897 134.298 59.5574 134.278 60.1211C134.261 60.581 134.419 60.7682 134.906 60.7478C135.841 60.7112 136.777 60.7417 137.712 60.7153C138.753 60.6847 138.827 60.6013 139.1 59.6042C139.176 59.3254 139.328 59.067 139.443 58.8004L139.727 58.8818C139.673 59.6734 139.632 60.467 139.552 61.2565C139.544 61.34 139.318 61.4661 139.193 61.4661C136.849 61.4783 134.506 61.4763 132.162 61.4763C132.115 61.4193 132.07 61.3624 132.022 61.3074Z" fill="#E4E9F2"/>
<path d="M148.111 59.2949C149.019 56.8856 149.925 54.4763 150.837 52.0669C151.024 51.5745 150.796 51.3995 150.338 51.373C150.178 51.3629 150.009 51.369 149.865 51.3181C149.761 51.2794 149.687 51.1573 149.598 51.0739C149.685 50.9905 149.771 50.8379 149.861 50.8358C150.796 50.8175 151.732 50.8175 152.667 50.8338C152.755 50.8338 152.874 50.9762 152.913 51.078C152.932 51.1289 152.798 51.3059 152.735 51.3059C152.032 51.2937 151.901 51.8533 151.708 52.3193C150.531 55.1864 149.376 58.0618 148.191 60.9249C148.089 61.1711 147.852 61.456 147.616 61.5353C147.146 61.692 147.094 61.2362 146.973 60.935C145.825 58.0821 144.681 55.2251 143.531 52.3722C143.33 51.8757 143.18 51.3181 142.459 51.314C142.368 51.314 142.278 51.1146 142.188 51.0068C142.294 50.9437 142.401 50.8277 142.51 50.8257C143.65 50.8114 144.792 50.8094 145.932 50.8257C146.045 50.8257 146.156 50.9844 146.267 51.0678C146.168 51.1635 146.084 51.2998 145.965 51.3425C145.821 51.3934 145.651 51.3649 145.49 51.371C145.096 51.3873 144.884 51.5135 145.057 51.9611C145.998 54.403 146.928 56.849 147.861 59.2929C147.947 59.2929 148.033 59.2929 148.119 59.2929L148.111 59.2949Z" fill="#E4E9F2"/>
<path d="M60.0915 2.07763C58.5285 3.12967 56.9654 4.18172 55.4023 5.23376C50.9266 8.2393 46.4448 11.2367 41.9856 14.2646C41.6467 14.4946 41.3386 14.9117 41.2256 15.3004C39.6913 20.5301 38.194 25.77 36.6843 31.0057C36.5857 31.3456 36.4789 31.6813 36.2529 31.9866C36.6514 30.2996 37.054 28.6147 37.4504 26.9278C38.4343 22.7461 39.4079 18.5623 40.4184 14.3888C40.5026 14.0428 40.7738 13.646 41.0736 13.4609C47.2377 9.67187 53.4181 5.90934 59.5965 2.14275C59.7239 2.06542 59.8697 2.01251 60.0073 1.94943C60.0361 1.99217 60.0648 2.03693 60.0915 2.07967V2.07763Z" fill="#E4E9F2"/>
<path d="M34.581 56.1367C35 55.4612 35.3697 54.8751 35.7292 54.2809C36.2673 53.3896 36.8014 52.4943 37.3333 51.5989C37.6743 51.0251 38.2241 50.7883 38.9827 50.8887C38.882 51.0576 38.8081 51.2041 38.7157 51.3405C37.6332 52.9318 36.5117 54.4986 35.4847 56.1225C35.191 56.5885 35.0842 57.2091 35.0288 57.7728C34.9569 58.5115 35.0431 59.2623 35.0226 60.0071C35.0041 60.6644 35.2896 60.9595 35.951 60.9737C36.1297 60.9778 36.3063 61.1385 36.483 61.2281C36.3022 61.3054 36.1215 61.4478 35.9387 61.4519C34.7987 61.4743 33.6588 61.4763 32.5188 61.458C32.3586 61.456 32.1984 61.3135 32.0402 61.2362C32.1943 61.1467 32.338 61.0022 32.5024 60.9757C33.439 60.8333 33.4225 60.7722 33.5273 59.8077C33.745 57.8074 33.3322 56.0187 32.0443 54.4315C31.576 53.8536 31.2309 53.178 30.7955 52.5716C30.4134 52.0385 30.0314 51.4809 29.2406 51.5053C29.1605 51.5073 29.0763 51.3893 28.9941 51.3283C29.0681 51.2347 29.1276 51.0759 29.218 51.0576C29.8198 50.9315 30.4258 50.7727 31.0338 50.7585C31.2741 50.7544 31.6048 51.0475 31.7526 51.2896C32.5907 52.6591 33.3876 54.055 34.1969 55.4428C34.3099 55.6341 34.4126 55.8315 34.583 56.1408L34.581 56.1367Z" fill="#E4E9F2"/>
<path d="M124.675 56.1123C124.938 55.7053 125.162 55.3777 125.367 55.0379C126.06 53.8923 126.791 52.769 127.415 51.5887C127.789 50.8806 128.268 50.669 129.083 50.8928C128.991 51.0515 128.919 51.198 128.828 51.3323C127.779 52.8646 126.731 54.401 125.669 55.9272C125.238 56.5478 125.037 57.2091 125.086 57.9682C125.129 58.6437 125.125 59.3254 125.113 60.0031C125.1 60.6481 125.388 60.9574 126.045 60.9798C126.226 60.9859 126.401 61.1467 126.577 61.2342C126.396 61.3115 126.216 61.4519 126.033 61.456C124.938 61.4784 123.841 61.4784 122.747 61.46C122.551 61.456 122.358 61.3318 122.165 61.2627C122.332 61.1629 122.496 60.9798 122.662 60.9757C123.371 60.9635 123.527 60.6115 123.607 59.9522C123.856 57.8766 123.447 56.0228 122.108 54.3725C121.594 53.7417 121.206 53.0111 120.727 52.3518C120.407 51.9103 120.046 51.4931 119.405 51.5114C119.3 51.5155 119.191 51.3975 119.086 51.3364C119.179 51.2326 119.257 51.0597 119.366 51.0353C119.945 50.9132 120.538 50.7341 121.116 50.7687C121.418 50.787 121.785 51.1492 121.968 51.4483C122.796 52.8015 123.566 54.1873 124.357 55.5609C124.443 55.7115 124.531 55.862 124.675 56.1103V56.1123Z" fill="#E4E9F2"/>
<path d="M72.8756 76.2293C73.7054 77.3872 74.525 78.5328 75.3774 79.7232C74.2477 80 74.1203 79.9491 73.5781 79.129C73.1529 78.486 72.7216 77.8471 72.2964 77.204C71.674 76.2639 70.721 76.325 69.7782 76.4186C69.6632 76.4308 69.4989 76.738 69.4927 76.913C69.4598 77.727 69.4639 78.541 69.4783 79.3549C69.4845 79.7395 69.3304 79.8738 68.9504 79.8637C68.6095 79.8555 68.3918 79.8128 68.3938 79.3875C68.4102 77.0351 68.402 74.6828 68.4082 72.3305C68.4082 72.245 68.4513 72.1595 68.476 72.068C69.9507 72.068 71.4111 71.9927 72.8592 72.0924C74.0217 72.1717 74.6564 72.9165 74.7386 73.9808C74.8207 75.0369 74.2169 75.8468 73.0954 76.1805C72.9865 76.213 72.8736 76.2293 72.8756 76.2293ZM70.9777 75.4703C71.4769 75.4439 71.9842 75.4561 72.4751 75.3808C73.2412 75.2627 73.6623 74.7601 73.6233 74.1008C73.5842 73.4415 73.1118 72.9918 72.3416 72.943C71.7274 72.9043 71.1112 72.9185 70.4971 72.9165C69.8138 72.9138 69.4735 73.2584 69.4763 73.9502C69.4817 74.9514 69.9822 75.4581 70.9777 75.4703Z" fill="#E4E9F2"/>
<path d="M109.847 61.4234H102.276C102.256 61.3318 102.227 61.2606 102.239 61.2504C102.944 60.7743 102.893 60.0437 102.893 59.3356C102.897 57.0097 102.884 54.6838 102.901 52.3559C102.905 51.7088 102.724 51.314 101.981 51.3283C101.81 51.3324 101.636 51.1451 101.463 51.0454C101.648 50.9681 101.833 50.8277 102.02 50.8236C103.137 50.8053 104.254 50.8094 105.37 50.8277C105.538 50.8297 105.707 50.9579 105.875 51.0292C105.709 51.1329 105.544 51.3201 105.374 51.3242C104.821 51.3425 104.427 51.489 104.431 52.1219C104.443 54.8771 104.458 57.6324 104.474 60.3877C104.474 60.4731 104.513 60.5606 104.534 60.642C105.908 60.642 107.266 60.6522 108.623 60.6359C109.046 60.6298 109.27 60.3673 109.324 59.9461C109.352 59.7243 109.396 59.4923 109.488 59.2908C109.568 59.1138 109.726 58.9693 109.852 58.8126C109.905 59.0039 110.012 59.1952 110.004 59.3844C109.973 60.056 109.903 60.7254 109.847 61.4234Z" fill="#E4E9F2"/>
<path d="M44.3641 74.1741C43.7767 74.402 43.444 74.3491 43.1893 73.7081C42.7641 72.6357 40.5766 72.477 39.8906 73.413C39.4962 73.9523 39.6564 74.579 40.3301 74.8476C40.897 75.0735 41.5111 75.1834 42.0986 75.3604C42.5566 75.4968 43.0311 75.6046 43.4542 75.8162C44.8427 76.5081 45.0481 78.2337 43.8917 79.2634C42.7148 80.3113 40.1863 80.2279 39.0874 79.1067C38.5965 78.6061 38.4076 78.1259 38.4158 77.377C38.9231 77.2183 39.2949 77.1491 39.5393 77.8471C39.983 79.123 42.3718 79.5014 43.2878 78.4962C43.8116 77.9203 43.7069 77.1288 42.9859 76.795C42.4354 76.5386 41.8151 76.4349 41.2318 76.2415C40.6731 76.0564 40.0713 75.9282 39.5763 75.6311C38.3151 74.8782 38.3254 73.118 39.5927 72.3712C40.8292 71.6447 42.1294 71.6854 43.3721 72.3752C44.0519 72.7537 44.3744 73.3866 44.3621 74.1741H44.3641Z" fill="#E4E9F2"/>
<path d="M114.763 61.4661C114.169 61.4661 113.575 61.4784 112.984 61.458C112.857 61.4539 112.731 61.3339 112.606 61.2667C112.725 61.167 112.834 61.0063 112.967 60.9778C114.064 60.758 114.077 60.7661 114.079 59.6327C114.083 57.2356 114.081 54.8385 114.068 52.4414C114.064 51.5114 113.997 51.4667 113.095 51.3323C112.924 51.3059 112.77 51.1655 112.61 51.076C112.785 50.9885 112.957 50.8277 113.134 50.8236C114.274 50.8012 115.416 50.8053 116.558 50.8236C116.724 50.8257 116.889 50.96 117.055 51.0332C116.886 51.135 116.716 51.3242 116.55 51.3222C115.847 51.3161 115.582 51.6233 115.588 52.3132C115.611 54.8466 115.611 57.3801 115.584 59.9115C115.576 60.6196 115.829 60.9615 116.56 60.9757C116.724 60.9778 116.886 61.165 117.049 61.2688C116.858 61.3359 116.667 61.4539 116.472 61.4641C115.903 61.4906 115.332 61.4743 114.761 61.4743C114.761 61.4722 114.761 61.4702 114.761 61.4661H114.763Z" fill="#E4E9F2"/>
<path d="M59.9848 79.7802C59.281 79.9064 58.8079 79.6595 58.5655 79.0395C58.1602 78.0004 57.3995 77.4835 56.2835 77.4889C54.6608 77.495 54.628 77.4849 54.1124 79.0599C53.8844 79.7538 53.5414 80.0346 52.7773 79.7802C52.804 79.6459 52.8102 79.4933 52.8616 79.361C53.7345 77.0799 54.6177 74.8008 55.4907 72.5197C55.6139 72.1982 55.7577 71.954 56.1685 72.0028C56.493 72.0415 56.8401 71.9194 57.0209 72.3651C57.9883 74.7561 58.9783 77.1369 59.9581 79.5238C59.9889 79.6011 59.9786 79.6948 59.9868 79.7802H59.9848ZM56.2773 73.0488C55.8275 74.3186 55.4352 75.4235 55.0265 76.5793H57.5939C57.1585 75.4113 56.7456 74.3063 56.2773 73.0488Z" fill="#E4E9F2"/>
<path d="M90.2893 79.7578C89.2931 79.9939 89.2068 79.9532 88.8926 79.123C88.2723 77.4889 88.2723 77.4665 86.6065 77.493C84.5628 77.5256 85.1482 77.1328 84.382 79.0985C84.0452 79.9613 84.0636 79.9735 83.0161 79.7578C83.5358 78.4026 84.0493 77.0555 84.5669 75.7125C84.99 74.6157 85.3967 73.5087 85.8712 72.4342C85.9636 72.2267 86.3395 72.0334 86.588 72.0313C86.8345 72.0293 87.2247 72.2124 87.3131 72.4159C88.3216 74.7662 89.2828 77.1349 90.2544 79.5014C90.2872 79.5788 90.279 79.6724 90.2913 79.7558L90.2893 79.7578ZM86.5859 73.0569C86.1382 74.3023 85.7397 75.4072 85.3227 76.5671H87.8882C87.4527 75.395 87.044 74.2921 86.5859 73.0569Z" fill="#E4E9F2"/>
<path d="M95.2887 9.2771C99.3535 10.3047 103.418 11.3323 107.485 12.3559C109.962 12.9786 112.439 13.6033 114.923 14.2036C115.358 14.3094 115.508 14.4987 115.502 14.9423C115.481 16.6617 115.506 18.3812 115.492 20.0987C115.49 20.3246 115.412 20.6196 115.258 20.76C114.013 21.8914 112.743 22.9944 111.478 24.1034C111.437 24.14 111.365 24.1441 111.427 24.2682C112.372 23.2446 113.288 22.1946 114.272 21.2118C114.687 20.7967 114.919 20.41 114.896 19.8057C114.847 18.4728 114.839 17.1359 114.882 15.803C114.902 15.1844 114.666 14.9504 114.089 14.7876C108.077 13.0925 102.071 11.369 96.0651 9.65152C95.7837 9.57013 95.5064 9.47245 95.2271 9.38292C95.2476 9.34832 95.2681 9.31169 95.2887 9.2771Z" fill="#E4E9F2"/>
<path d="M97.0898 72.0822C97.8601 71.9356 98.3674 71.9438 98.7556 72.6377C99.3143 73.6368 100.004 74.5627 100.693 75.6025C101.372 74.579 102.046 73.649 102.623 72.6621C103.003 72.0109 103.482 71.8807 104.256 72.1025C103.903 72.6173 103.576 73.0935 103.25 73.5676C103.147 73.7162 103.051 73.8729 102.931 74.0092C101.619 75.5171 100.803 77.1857 101.171 79.2511C101.241 79.6438 101.11 79.8717 100.623 79.8758C100.107 79.8778 100.037 79.6031 100.101 79.2328C100.444 77.2284 99.684 75.5923 98.4455 74.0804C97.9607 73.4903 97.5807 72.8167 97.0898 72.0862V72.0822Z" fill="#E4E9F2"/>
<path d="M112.924 72.0842C113.949 71.9235 113.964 71.9316 113.964 72.8555C113.966 74.9738 113.957 77.0942 113.972 79.2125C113.974 79.6357 113.916 79.882 113.388 79.8759C112.861 79.8698 112.877 79.5747 112.877 79.2166C112.881 77.0067 112.877 74.7988 112.881 72.5889C112.881 72.4342 112.908 72.2796 112.926 72.0863L112.924 72.0842Z" fill="#E4E9F2"/>
<path d="M115.736 48.5628C115.724 49.0349 115.311 49.4317 114.837 49.387C114.342 49.3402 114.042 49.0675 114.033 48.5506C114.025 48.0541 114.395 47.6878 114.886 47.6939C115.379 47.7001 115.751 48.0806 115.736 48.5628Z" fill="#E4E9F2"/>
</g>
<defs>
<clipPath id="clip0_2_1380">
<rect width="152.911" height="80" fill="white"/>
</clipPath>
</defs>
</svg>
