<svg width="20" height="20" viewBox="0 0 20 20" fill="none" xmlns="http://www.w3.org/2000/svg">
<g clip-path="url(#clip0_2_2969)">
<path fill-rule="evenodd" clip-rule="evenodd" d="M17.5946 5.7162L19.6149 7.7365C19.9273 8.04892 19.9273 8.55545 19.6149 8.86787L14.3314 14.1514L8.8669 19.6159C8.55448 19.9283 8.04795 19.9283 7.73553 19.6159L5.71522 17.5956C6.65248 16.6583 6.65248 15.1387 5.71522 14.2015C4.77796 13.2642 3.25837 13.2642 2.32111 14.2015L0.38307 12.2634C0.0706501 11.951 0.070651 11.4445 0.38307 11.1321L0.384521 11.1306L5.79921 5.74362L11.1296 0.385525C11.4413 0.0722978 11.9478 0.0709868 12.261 0.382597L12.2625 0.384059L14.2005 2.32209C13.2632 3.25934 13.2632 4.77894 14.2005 5.7162C15.1378 6.65346 16.6574 6.65346 17.5946 5.7162ZM8.29805 4.33922L9.14974 5.19092C9.30595 5.34713 9.55922 5.34713 9.71543 5.19092C9.87164 5.03471 9.87164 4.78144 9.71543 4.62523L8.86373 3.77354C8.70752 3.61733 8.45426 3.61733 8.29805 3.77354C8.14184 3.92975 8.14184 4.18301 8.29805 4.33922ZM16.2208 11.1306L15.3723 10.2821C15.2161 10.1259 14.9628 10.1259 14.8066 10.2821C14.6504 10.4383 14.6504 10.6916 14.8066 10.8478L15.6551 11.6963C15.8113 11.8525 16.0646 11.8525 16.2208 11.6963C16.377 11.5401 16.377 11.2868 16.2208 11.1306ZM10.2811 6.32229L11.4125 7.45366C11.5687 7.60987 11.822 7.60987 11.9782 7.45366C12.1344 7.29745 12.1344 7.04418 11.9782 6.88797L10.8468 5.7566C10.6906 5.60039 10.4373 5.60039 10.2811 5.7566C10.1249 5.91281 10.1249 6.16608 10.2811 6.32229ZM12.5439 8.58503L13.6752 9.7164C13.8314 9.87261 14.0847 9.87261 14.2409 9.7164C14.3971 9.56019 14.3971 9.30693 14.2409 9.15072L13.1095 8.01935C12.9533 7.86314 12.7001 7.86314 12.5439 8.01935C12.3876 8.17555 12.3876 8.42882 12.5439 8.58503Z" fill="white"/>
</g>
<defs>
<clipPath id="clip0_2_2969">
<rect width="20" height="20" fill="white"/>
</clipPath>
</defs>
</svg>
